Asshole.Fever. Shalina. Divine.in. Anytime. Anywhere. By AltriX
________________________________________________________________

Format                                   : Windows Media
File size                                : 556 MiB
Duration                                 : 25mn 1s
Overall bit rate mode                    : Constant
Overall bit rate                         : 3 109 Kbps
Maximum Overall bit rate                 : 3 123 Kbps
Encoded date                             : UTC 2011-06-29 05:46:41.893
Copyright                                : 21sextury.com

Video
ID                                       : 2
Format                                   : VC-1
Format profile                           : MP@HL
Codec ID                                 : WMV3
Codec ID/Info                            : Windows Media Video 9
Codec ID/Hint                            : WMV3
Description of the codec                 : Windows Media Video 9 - Professional
Duration                                 : 25mn 1s
Bit rate mode                            : Constant
Bit rate                                 : 3 000 Kbps
Width                                    : 960 pixels
Height                                   : 540 pixels
Display aspect ratio                     : 16:9
Frame rate                               : 29.970 fps
Bit depth                                : 8 bits
Scan type                                : Progressive
Compression mode                         : Lossy
Bits/(Pixel*Frame)                       : 0.193
Stream size                              : 537 MiB (96%)
Language                                 : English (US)

Audio
ID                                       : 1
Format                                   : WMA
Format version                           : Version 2
Codec ID                                 : 161
Codec ID/Info                            : Windows Media Audio
Description of the codec                 : Windows Media Audio 9.2 -  96 kbps, 44 kHz, stereo 1-pass CBR
Duration                                 : 25mn 1s
Bit rate mode                            : Constant
Bit rate                                 : 96.0 Kbps
Channel(s)                               : 2 channels
Sampling rate                            : 44.1 KHz
Bit depth                                : 16 bits
Stream size                              : 17.2 MiB (3%)
Language                                 : English (US)
_______________________________________________________________

POZE DIN FILM



